# xmcd
#
# Track frame offsets:
#	150
#	16212
#	37197
#	61737
#	84055
#	108702
#
# Disc length: 1743 seconds
#
# Revision: 1
# Processed by: cddbd v1.5.1PL0 Copyright (c) Steve Scherf et al.
# Submitted via: CDex 1.50Beta5
#
DISCID=4006cd06
DTITLE=織田裕二 - 織田裕二SINGLES
DYEAR=1991
DGENRE=Pop
TTITLE0=織田裕二/Hold You Tight
TTITLE1=織田裕二/週末だけは少年
TTITLE2=織田裕二/歌えなかったラブ・ソング
TTITLE3=織田裕二/現在,この瞬間から
TTITLE4=歌えなかったラブ・ソング
TTITLE5=現在,この瞬間から
EXTD=
EXTT0=
EXTT1=
EXTT2=
EXTT3=
EXTT4=
EXTT5=
PLAYORDER=
